<svg width="155" height="96" viewBox="0 0 170 106" fill="none" xmlns="http://www.w3.org/2000/svg">
<rect width="100%" height="100%" fill="#808080" />
<path fill-rule="evenodd" clip-rule="evenodd" d="M25.6835 1.04148C28.1092 -0.347161 31.089 -0.347161 33.5147 1.04148L55.2324 13.4741C57.6851 14.8781 59.1982 17.4879 59.1982 20.314V45.8257C59.1982 48.6828 57.652 51.3161 55.1571 52.7083L35.0285 63.9394V87.5908C35.0285 93.7207 28.338 97.5041 23.085 94.3447L3.81927 82.7574C1.44943 81.332 0 78.7689 0 76.0034V20.314C0 17.4879 1.51315 14.8781 3.9658 13.4741L25.6835 1.04148ZM10.8588 22.0403V74.3197L24.1697 82.3255V62.1912C24.1697 59.3341 25.7159 56.7007 28.2109 55.3086L48.3394 44.0775V22.0403L29.5991 11.3122L10.8588 22.0403Z" fill="white"/>
<path d="M148.242 95.0965V74.5223H154.208V95.0965H148.242ZM151.225 71.6541C150.129 71.6541 149.237 71.3354 148.548 70.6981C147.86 70.0607 147.516 69.2704 147.516 68.3271C147.516 67.3838 147.86 66.5934 148.548 65.9561C149.237 65.3187 150.129 65 151.225 65C152.321 65 153.214 65.3059 153.902 65.9178C154.59 66.5042 154.935 67.269 154.935 68.2123C154.935 69.2066 154.59 70.0352 153.902 70.6981C153.239 71.3354 152.347 71.6541 151.225 71.6541Z" fill="white"/>
<path d="M131.885 95.097V74.5227H137.583V80.3355L136.78 78.6529C137.392 77.1997 138.373 76.1034 139.724 75.3641C141.076 74.5992 142.72 74.2168 144.658 74.2168V79.7237C144.403 79.6982 144.173 79.6854 143.969 79.6854C143.765 79.6599 143.549 79.6472 143.319 79.6472C141.687 79.6472 140.362 80.1188 139.342 81.0621C138.348 81.9799 137.851 83.4204 137.851 85.3835V95.097H131.885Z" fill="white"/>
<path d="M120.383 95.0965V74.5223H126.349V95.0965H120.383ZM123.366 71.6541C122.269 71.6541 121.377 71.3354 120.689 70.6981C120 70.0607 119.656 69.2704 119.656 68.3271C119.656 67.3838 120 66.5934 120.689 65.9561C121.377 65.3187 122.269 65 123.366 65C124.462 65 125.354 65.3059 126.043 65.9178C126.731 66.5042 127.075 67.269 127.075 68.2123C127.075 69.2066 126.731 70.0352 126.043 70.6981C125.38 71.3354 124.487 71.6541 123.366 71.6541Z" fill="white"/>
<path d="M92.7949 95.0956V68.3262H104.382C106.779 68.3262 108.844 68.7213 110.577 69.5117C112.311 70.2765 113.65 71.3855 114.593 72.8387C115.536 74.2919 116.008 76.0256 116.008 78.0397C116.008 80.0283 115.536 81.7491 114.593 83.2023C113.65 84.6555 112.311 85.7773 110.577 86.5676C108.844 87.3325 106.779 87.7149 104.382 87.7149H96.2367L98.9901 84.9232V95.0956H92.7949ZM98.9901 85.6116L96.2367 82.667H104.038C105.95 82.667 107.378 82.259 108.321 81.4432C109.265 80.6274 109.736 79.4929 109.736 78.0397C109.736 76.561 109.265 75.4137 108.321 74.5979C107.378 73.782 105.95 73.3741 104.038 73.3741H96.2367L98.9901 70.4295V85.6116Z" fill="white"/>
<path d="M80.8711 95.0963V66.7207H86.8369V95.0963H80.8711Z" fill="white"/>
<path d="M69.3672 95.0963V66.7207H75.333V95.0963H69.3672Z" fill="white"/>
<path d="M51.7957 95.4017C50.0875 95.4017 48.5579 95.0702 47.2066 94.4074C45.8809 93.7445 44.8484 92.7375 44.109 91.3862C43.3697 90.0095 43 88.2631 43 86.1471V74.5215H48.9658V85.2675C48.9658 86.9757 49.3227 88.2376 50.0365 89.0535C50.7759 89.8438 51.8084 90.239 53.1342 90.239C54.052 90.239 54.8678 90.0478 55.5816 89.6654C56.2955 89.2574 56.8564 88.6456 57.2643 87.8297C57.6722 86.9884 57.8762 85.9431 57.8762 84.6939V74.5215H63.8419V95.0957H58.1821V89.4359L59.2146 91.0803C58.5263 92.508 57.5065 93.5915 56.1553 94.3309C54.8296 95.0447 53.3764 95.4017 51.7957 95.4017Z" fill="white"/>
<rect width="28.0228" height="56.8362" transform="matrix(0.866025 0.5 0 1 5.07812 19.0664)" fill="#FFBB4E"/>
<rect width="28.0228" height="28.0228" transform="matrix(0.866025 0.5 -0.866025 0.5 29.3477 5.05664)" fill="#7DDCED"/>
<path d="M29.3477 33.0801L53.6161 19.0687V47.0915L29.3477 61.1029L29.3477 33.0801Z" fill="#A66CED"/>
</svg>
