<svg width="215" height="116" viewBox="0 0 215 116" fill="none" xmlns="http://www.w3.org/2000/svg">
<rect width="100%" height="100%" fill="#808080" />
<path fill-rule="evenodd" clip-rule="evenodd" d="M55.6835 11.04148C58.1092 9.652839 61.089 9.652839 63.5147 11.04148L85.2324 23.4741C87.6851 24.8781 89.1982 27.4879 89.1982 30.314V55.8257C89.1982 58.6828 87.652 61.3161 85.1571 62.7083L65.0285 73.9394V97.5908C65.0285 103.7207 58.338 107.5041 53.085 104.3447L33.81927 92.7574C31.44943 91.332 30 88.7689 30 86.0034V30.314C30 27.4879 31.51315 24.8781 33.9658 23.4741L55.6835 11.04148ZM40.8588 32.0403V84.3197L54.1697 92.3255V72.1912C54.1697 69.3341 55.7159 66.7007 58.2109 65.3086L78.3394 54.0775V32.0403L59.5991 21.3122L40.8588 32.0403Z" fill="white"/>
<path d="M178.242 105.0965V84.5223H184.208V105.0965H178.242ZM181.225 81.6541C180.129 81.6541 179.237 81.3354 178.548 80.6981C177.86 80.0607 177.516 79.2704 177.516 78.3271C177.516 77.3838 177.86 76.5934 178.548 75.9561C179.237 75.3187 180.129 75 181.225 75C182.321 75 183.214 75.3059 183.902 75.9178C184.59 76.5042 184.935 77.269 184.935 78.2123C184.935 79.2066 184.59 80.0352 183.902 80.6981C183.239 81.3354 182.347 81.6541 181.225 81.6541Z" fill="white"/>
<path d="M161.885 105.097V84.5227H167.583V90.3355L166.78 88.6529C167.392 87.1997 168.373 86.1034 169.724 85.3641C171.076 84.5992 172.72 84.2168 174.658 84.2168V89.7237C174.403 89.6982 174.173 89.6854 173.969 89.6854C173.765 89.6599 173.549 89.6472 173.319 89.6472C171.687 89.6472 170.362 90.1188 169.342 91.0621C168.348 91.9799 167.851 93.4204 167.851 95.3835V105.097H161.885Z" fill="white"/>
<path d="M150.383 105.0965V84.5223H156.349V105.0965H150.383ZM153.366 81.6541C152.269 81.6541 151.377 81.3354 150.689 80.6981C150 80.0607 149.656 79.2704 149.656 78.3271C149.656 77.3838 150 76.5934 150.689 75.9561C151.377 75.3187 152.269 75 153.366 75C154.462 75 155.354 75.3059 156.043 75.9178C156.731 76.5042 157.075 77.269 157.075 78.2123C157.075 79.2066 156.731 80.0352 156.043 80.6981C155.38 81.3354 154.487 81.6541 153.366 81.6541Z" fill="white"/>
<path d="M122.7949 105.0956V78.3262H134.382C136.779 78.3262 138.844 78.7213 140.577 79.5117C142.311 80.2765 143.65 81.3855 144.593 82.8387C145.536 84.2919 146.008 86.0256 146.008 88.0397C146.008 90.0283 145.536 91.7491 144.593 93.2023C143.65 94.6555 142.311 95.7773 140.577 96.5676C138.844 97.3325 136.779 97.7149 134.382 97.7149H126.2367L128.9901 94.9232V105.0956H122.7949ZM128.9901 95.6116L126.2367 92.667H134.038C135.95 92.667 137.378 92.259 138.321 91.4432C139.265 90.6274 139.736 89.4929 139.736 88.0397C139.736 86.561 139.265 85.4137 138.321 84.5979C137.378 83.782 135.95 83.3741 134.038 83.3741H126.2367L128.9901 80.4295V95.6116Z" fill="white"/>
<path d="M110.8711 105.0963V76.7207H116.8369V105.0963H110.8711Z" fill="white"/>
<path d="M99.3672 105.0963V76.7207H105.333V105.0963H99.3672Z" fill="white"/>
<path d="M81.7957 105.4017C80.0875 105.4017 78.5579 105.0702 77.2066 104.4074C75.8809 103.7445 74.8484 102.7375 74.109 101.3862C73.3697 100.0095 73 98.2631 73 96.1471V84.5215H78.9658V95.2675C78.9658 96.9757 79.3227 98.2376 80.0365 99.0535C80.7759 99.8438 81.8084 100.239 83.1342 100.239C84.052 100.239 84.8678 100.0478 85.5816 99.6654C86.2955 99.2574 86.8564 98.6456 87.2643 97.8297C87.6722 96.9884 87.8762 95.9431 87.8762 94.6939V84.5215H93.8419V105.0957H88.1821V99.4359L89.2146 101.0803C88.5263 102.508 87.5065 103.5915 86.1553 104.3309C84.8296 105.0447 83.3764 105.4017 81.7957 105.4017Z" fill="white"/>
<rect width="28.0228" height="56.8362" transform="matrix(0.866025 0.5 0 1 35.07812 29.0664)" fill="#FFBB4E"/>
<rect width="28.0228" height="28.0228" transform="matrix(0.866025 0.5 -0.866025 0.5 59.3477 15.05664)" fill="#7DDCED"/>
<path d="M59.3477 43.0801L83.6161 29.0687V57.0915L59.3477 71.1029L59.3477 43.0801Z" fill="#A66CED"/>
</svg>
